<svg width="37" height="37" viewBox="0 0 37 37" fill="none" xmlns="http://www.w3.org/2000/svg">
<path d="M11.1758 0.915039C5.41866 0.915039 0.735596 5.63315 0.735596 11.4295V26.446C0.735596 32.2409 5.423 36.9546 11.1816 36.9546H26.1004C31.8575 36.9546 36.5406 32.2365 36.5406 26.4402V11.4237C36.5406 5.62879 31.8532 0.915039 26.0946 0.915039H11.1758ZM29.0812 6.92164C29.9047 6.92164 30.5731 7.59438 30.5731 8.42329C30.5731 9.2522 29.9047 9.92494 29.0812 9.92494C28.2577 9.92494 27.5893 9.2522 27.5893 8.42329C27.5893 7.59438 28.2577 6.92164 29.0812 6.92164ZM18.6381 9.92494C23.5747 9.92494 27.5893 13.9659 27.5893 18.9348C27.5893 23.9038 23.5747 27.9447 18.6381 27.9447C13.7015 27.9447 9.68685 23.9038 9.68685 18.9348C9.68685 13.9659 13.7015 9.92494 18.6381 9.92494ZM18.6381 12.9282C17.0554 12.9282 15.5376 13.5611 14.4184 14.6875C13.2993 15.814 12.6706 17.3418 12.6706 18.9348C12.6706 20.5279 13.2993 22.0557 14.4184 23.1822C15.5376 24.3086 17.0554 24.9414 18.6381 24.9414C20.2208 24.9414 21.7386 24.3086 22.8578 23.1822C23.9769 22.0557 24.6056 20.5279 24.6056 18.9348C24.6056 17.3418 23.9769 15.814 22.8578 14.6875C21.7386 13.5611 20.2208 12.9282 18.6381 12.9282Z" fill="white"/>
</svg>
