<svg width="35" height="34" viewBox="0 0 35 34" fill="none" xmlns="http://www.w3.org/2000/svg">
<path d="M31.7189 0.208252H3.30593C1.56168 0.208252 0.148926 1.56413 0.148926 3.23814V30.5071C0.148926 32.1811 1.56168 33.537 3.30593 33.537H31.7189C33.4632 33.537 34.8759 32.1811 34.8759 30.5071V3.23814C34.8759 1.56413 33.4632 0.208252 31.7189 0.208252ZM11.1258 27.4772H6.46924V13.0974H11.1258V27.4772ZM8.75017 11.0416C7.24902 11.0416 6.03515 9.87359 6.03515 8.43591C6.03515 6.99823 7.2506 5.83172 8.75017 5.83172C10.2466 5.83172 11.4636 6.99974 11.4636 8.43591C11.4636 9.87359 10.2466 11.0416 8.75017 11.0416ZM28.5682 27.4772H23.9148V20.4843C23.9148 18.8163 23.8833 16.6711 21.495 16.6711C19.072 16.6711 18.6995 18.4876 18.6995 20.3631V27.4772H14.046V13.0974H18.5132V15.0623H18.5763C19.1983 13.9321 20.7168 12.7399 22.9819 12.7399C27.6969 12.7399 28.5682 15.7182 28.5682 19.5904V27.4772Z" fill="white"/>
</svg>
